<svg width="22" height="22" viewBox="0 0 22 22" fill="none" xmlns="http://www.w3.org/2000/svg">
<path d="M7.5615 0C7.14549 0 6.80795 0.338807 6.80795 0.75513C6.80795 1.1727 7.14549 1.51151 7.5615 1.51151H14.4392C14.854 1.51151 15.1916 1.1727 15.1916 0.756378C15.1916 0.338807 14.854 0 14.4392 0H7.5615ZM20.494 4.2983V5.22094H1.50577V4.2983H20.494ZM15.8033 9.32919C15.4085 9.32919 15.0772 9.63799 15.0522 10.038L14.5989 17.3416C14.5727 17.7592 14.8891 18.118 15.3038 18.143C15.32 18.1442 15.335 18.1442 15.3512 18.1442C15.746 18.1442 16.0773 17.8367 16.1022 17.4366L16.5556 10.1318C16.5818 9.71546 16.2654 9.35665 15.8506 9.33166C15.8344 9.33041 15.8195 9.32919 15.8033 9.32919ZM6.19647 9.32919C6.18153 9.32919 6.16534 9.33044 6.14914 9.33169C5.73438 9.35669 5.41925 9.7155 5.44418 10.1318L5.89757 17.4367C5.92248 17.8367 6.25379 18.1455 6.64863 18.1455C6.66482 18.1455 6.68102 18.1443 6.69596 18.143C7.11073 18.118 7.4271 17.7592 7.40092 17.3417L6.94754 10.0381C6.92263 9.63801 6.59131 9.32919 6.19647 9.32919ZM11.0004 9.32294C10.5844 9.32294 10.2468 9.6605 10.2468 10.0781V17.3967C10.2468 17.813 10.5844 18.1518 11.0004 18.1518C11.4151 18.1518 11.7527 17.813 11.7527 17.3967V10.0781C11.7527 9.6605 11.4151 9.32294 11.0004 9.32294ZM18.9782 6.7325L18.0839 19.8895V19.8908C18.0627 20.2233 17.7849 20.4871 17.4474 20.4871L4.5573 20.4884C4.21851 20.4871 3.942 20.2233 3.91958 19.8895L3.02529 6.73379L18.9782 6.7325ZM0.752316 2.7869V2.78815H0.75107C0.551785 2.78815 0.361204 2.86692 0.220461 3.00819C0.0797142 3.15071 0 3.342 0 3.54328V5.97619C0 6.17747 0.0797142 6.37001 0.220461 6.51128C0.361207 6.65256 0.553029 6.73257 0.752314 6.73257H1.51582L2.41509 19.9459C2.46616 21.0861 3.40157 21.995 4.54869 22H17.455C18.6022 21.995 19.5376 21.0861 19.5886 19.9459L20.4879 6.73257H21.2477C21.6637 6.73257 22 6.39376 22 5.97619V3.54329C22 3.12572 21.6637 2.78816 21.2477 2.78816L0.752316 2.7869Z" fill="white"/>
</svg>
