<svg width="19" height="23" viewBox="0 0 19 23" fill="none" xmlns="http://www.w3.org/2000/svg">
<path d="M14.126 1.66274H14.1286C14.3004 1.66274 14.4722 1.7315 14.6043 1.86765L14.603 1.86902L17.2045 4.57678V4.57815H17.2058C17.4687 4.85319 17.4687 5.29739 17.2045 5.57103L14.348 8.54557L10.791 4.84201L13.6476 1.86885C13.7797 1.73133 13.9529 1.66274 14.126 1.66274ZM9.6616 6.01795L13.2185 9.7201V9.72147L5.61728 17.6317L2.36701 18.1048C2.33663 18.1089 2.30624 18.1116 2.27585 18.1116C2.10277 18.1116 1.92838 18.0429 1.79623 17.904C1.63768 17.7403 1.57426 17.5134 1.60597 17.2989L2.06049 13.9283L9.6616 6.01795ZM14.126 1.41011e-05H14.1234C13.5434 1.41011e-05 12.962 0.231047 12.518 0.693129C12.5154 0.69588 0.747017 12.9434 0.747017 12.9434C0.626784 13.0672 0.542224 13.2322 0.51712 13.4206L0.0229877 17.0661C-0.0747835 17.7798 0.139257 18.5307 0.666418 19.0794C1.11036 19.5414 1.69304 19.7725 2.27437 19.7725C2.38007 19.7725 2.48445 19.7656 2.5875 19.7505L6.10586 19.2375C6.28291 19.2128 6.43749 19.1289 6.55507 19.0079L18.3339 6.74671C19.2152 5.82945 19.2218 4.347 18.355 3.42012H18.3524L15.7139 0.673858C15.2726 0.224185 14.6994 1.41011e-05 14.126 1.41011e-05ZM1.99948 21.3374C1.55818 21.3374 1.20144 21.7101 1.20144 22.1694C1.20144 22.6287 1.55818 23 1.99948 23H13.2381C13.6781 23 14.0362 22.6287 14.0362 22.1694C14.0362 21.7101 13.6781 21.3374 13.2381 21.3374H1.99948Z" fill="white"/>
</svg>
