<svg width="197" height="60" viewBox="0 0 197 60" fill="none" xmlns="http://www.w3.org/2000/svg">
<path d="M65.9375 23.4645V19.1818H84.3786V23.4645H77.7628V41H72.5639V23.4645H65.9375ZM91.0195 41.3089C89.3007 41.3089 87.8234 40.9574 86.5876 40.2543C85.3589 39.544 84.4108 38.5568 83.7432 37.2926C83.0827 36.0213 82.7524 34.5476 82.7524 32.8714C82.7524 31.1882 83.0827 29.7145 83.7432 28.4503C84.4108 27.179 85.3589 26.1918 86.5876 25.4886C87.8234 24.7784 89.3007 24.4233 91.0195 24.4233C92.7382 24.4233 94.2119 24.7784 95.4406 25.4886C96.6764 26.1918 97.6246 27.179 98.2851 28.4503C98.9527 29.7145 99.2865 31.1882 99.2865 32.8714C99.2865 34.5476 98.9527 36.0213 98.2851 37.2926C97.6246 38.5568 96.6764 39.544 95.4406 40.2543C94.2119 40.9574 92.7382 41.3089 91.0195 41.3089ZM91.0514 37.3778C91.6764 37.3778 92.2055 37.1861 92.6388 36.8026C93.072 36.419 93.4023 35.8864 93.6295 35.2045C93.8639 34.5227 93.9811 33.7344 93.9811 32.8395C93.9811 31.9304 93.8639 31.1349 93.6295 30.4531C93.4023 29.7713 93.072 29.2386 92.6388 28.8551C92.2055 28.4716 91.6764 28.2798 91.0514 28.2798C90.4051 28.2798 89.8582 28.4716 89.4108 28.8551C88.9705 29.2386 88.6331 29.7713 88.3987 30.4531C88.1714 31.1349 88.0578 31.9304 88.0578 32.8395C88.0578 33.7344 88.1714 34.5227 88.3987 35.2045C88.6331 35.8864 88.9705 36.419 89.4108 36.8026C89.8582 37.1861 90.4051 37.3778 91.0514 37.3778ZM143.563 41H137.895L145.257 19.1818H152.277L159.639 41H153.971L148.847 24.679H148.677L143.563 41ZM142.807 32.4134H154.653V36.419H142.807V32.4134ZM160.788 47.1364V24.6364H165.944V27.4382H166.104C166.317 26.9411 166.619 26.4616 167.01 26C167.407 25.5384 167.912 25.1619 168.522 24.8707C169.14 24.5724 169.879 24.4233 170.738 24.4233C171.875 24.4233 172.936 24.7216 173.924 25.3182C174.918 25.9148 175.721 26.8345 176.331 28.0774C176.942 29.3203 177.248 30.9041 177.248 32.8288C177.248 34.6825 176.953 36.2344 176.363 37.4844C175.781 38.7344 174.993 39.6719 173.998 40.2969C173.011 40.9219 171.914 41.2344 170.706 41.2344C169.882 41.2344 169.169 41.0994 168.565 40.8295C167.961 40.5597 167.453 40.2045 167.042 39.7642C166.637 39.3239 166.324 38.8516 166.104 38.3473H165.998V47.1364H160.788ZM165.891 32.8182C165.891 33.6989 166.008 34.4659 166.243 35.1193C166.484 35.7727 166.828 36.2805 167.276 36.6428C167.73 36.9979 168.274 37.1754 168.906 37.1754C169.545 37.1754 170.088 36.9979 170.536 36.6428C170.983 36.2805 171.321 35.7727 171.548 35.1193C171.782 34.4659 171.9 33.6989 171.9 32.8182C171.9 31.9375 171.782 31.174 171.548 30.5277C171.321 29.8814 170.983 29.3807 170.536 29.0256C170.096 28.6705 169.552 28.4929 168.906 28.4929C168.267 28.4929 167.723 28.6669 167.276 29.0149C166.828 29.3629 166.484 29.8601 166.243 30.5064C166.008 31.1527 165.891 31.9233 165.891 32.8182ZM178.777 47.1364V24.6364H183.934V27.4382H184.094C184.307 26.9411 184.608 26.4616 184.999 26C185.397 25.5384 185.901 25.1619 186.512 24.8707C187.13 24.5724 187.868 24.4233 188.728 24.4233C189.864 24.4233 190.926 24.7216 191.913 25.3182C192.907 25.9148 193.71 26.8345 194.321 28.0774C194.932 29.3203 195.237 30.9041 195.237 32.8288C195.237 34.6825 194.942 36.2344 194.353 37.4844C193.77 38.7344 192.982 39.6719 191.988 40.2969C191 40.9219 189.903 41.2344 188.696 41.2344C187.872 41.2344 187.158 41.0994 186.554 40.8295C185.951 40.5597 185.443 40.2045 185.031 39.7642C184.626 39.3239 184.314 38.8516 184.094 38.3473H183.987V47.1364H178.777ZM183.88 32.8182C183.88 33.6989 183.998 34.4659 184.232 35.1193C184.473 35.7727 184.818 36.2805 185.265 36.6428C185.72 36.9979 186.263 37.1754 186.895 37.1754C187.535 37.1754 188.078 36.9979 188.525 36.6428C188.973 36.2805 189.31 35.7727 189.537 35.1193C189.772 34.4659 189.889 33.6989 189.889 32.8182C189.889 31.9375 189.772 31.174 189.537 30.5277C189.31 29.8814 188.973 29.3807 188.525 29.0256C188.085 28.6705 187.542 28.4929 186.895 28.4929C186.256 28.4929 185.713 28.6669 185.265 29.0149C184.818 29.3629 184.473 29.8601 184.232 30.5064C183.998 31.1527 183.88 31.9233 183.88 32.8182Z" fill="white"/>
<path d="M107.573 41H99.3915L103.014 19.1818H110.95C113.166 19.1818 115.013 19.6328 116.49 20.5348C117.975 21.4297 119.022 22.7152 119.633 24.3913C120.251 26.0604 120.368 28.049 119.985 30.3572C119.615 32.5874 118.873 34.4979 117.758 36.0888C116.65 37.6797 115.23 38.8977 113.497 39.7429C111.764 40.581 109.789 41 107.573 41ZM105.4 36.5043H107.904C109.125 36.5043 110.205 36.2841 111.142 35.8438C112.087 35.3963 112.868 34.6825 113.486 33.7024C114.104 32.7152 114.544 31.419 114.807 29.8139C115.063 28.2798 115.052 27.0689 114.775 26.1811C114.505 25.2862 113.98 24.647 113.198 24.2635C112.424 23.8729 111.412 23.6776 110.162 23.6776H107.541L105.4 36.5043ZM127.733 41.3089C126.008 41.3089 124.584 40.9538 123.461 40.2436C122.346 39.5334 121.562 38.5426 121.107 37.2713C120.652 36 120.564 34.5227 120.841 32.8395C121.118 31.1634 121.689 29.6932 122.556 28.429C123.422 27.1648 124.53 26.1811 125.88 25.478C127.229 24.7749 128.76 24.4233 130.471 24.4233C132.19 24.4233 133.607 24.7784 134.722 25.4886C135.844 26.1989 136.633 27.1896 137.087 28.4609C137.549 29.7322 137.641 31.2131 137.364 32.9034C137.087 34.5795 136.512 36.0497 135.638 37.3139C134.765 38.571 133.657 39.5511 132.314 40.2543C130.972 40.9574 129.445 41.3089 127.733 41.3089ZM128.319 37.3778C128.959 37.3778 129.53 37.1861 130.035 36.8026C130.546 36.419 130.976 35.8828 131.324 35.1939C131.672 34.505 131.92 33.706 132.069 32.7969C132.219 31.902 132.233 31.1172 132.112 30.4425C131.998 29.7607 131.757 29.2315 131.388 28.8551C131.018 28.4716 130.518 28.2798 129.885 28.2798C129.246 28.2798 128.671 28.4751 128.16 28.8658C127.648 29.2493 127.219 29.7855 126.871 30.4744C126.53 31.1562 126.285 31.9553 126.135 32.8714C125.986 33.7663 125.969 34.5511 126.082 35.2259C126.196 35.9006 126.441 36.4297 126.817 36.8132C127.194 37.1896 127.694 37.3778 128.319 37.3778Z" fill="#FEEE53"/>
<path d="M30 0L32.0665 25.0111L51.2132 8.7868L34.9889 27.9335L60 30L34.9889 32.0665L51.2132 51.2132L32.0665 34.9889L30 60L27.9335 34.9889L8.7868 51.2132L25.0111 32.0665L0 30L25.0111 27.9335L8.7868 8.7868L27.9335 25.0111L30 0Z" fill="#FEEE53"/>
</svg>
